<svg xmlns="http://www.w3.org/2000/svg" width="160" height="160" viewBox="0 0 160 160" fill="none" role="img" aria-label="1ª Avaliação">
  <defs>
    <linearGradient id="g01_primeira_avaliacao" x1="27" y1="17" x2="130" y2="146" gradientUnits="userSpaceOnUse">
      <stop offset="0" stop-color="#FFE28A"/>
      <stop offset=".48" stop-color="#FFC107"/>
      <stop offset="1" stop-color="#F59E0B"/>
    </linearGradient>
    <filter id="shadow" x="-20%" y="-20%" width="140%" height="150%" color-interpolation-filters="sRGB">
      <feDropShadow dx="0" dy="10" stdDeviation="7" flood-color="#0F172A" flood-opacity=".16"/>
      <feDropShadow dx="0" dy="1" stdDeviation="1" flood-color="#0F172A" flood-opacity=".12"/>
    </filter>
    <radialGradient id="shine" cx="0" cy="0" r="1" gradientUnits="userSpaceOnUse" gradientTransform="translate(56 39) rotate(51) scale(104 99)">
      <stop stop-color="#FFFFFF" stop-opacity=".88"/>
      <stop offset=".38" stop-color="#FFFFFF" stop-opacity=".22"/>
      <stop offset="1" stop-color="#FFFFFF" stop-opacity="0"/>
    </radialGradient>
  </defs>
  <g filter="url(#shadow)">
    <path d="M80 12L124.5 29.8L144 73.5L132.2 121.3L92.3 148H67.7L27.8 121.3L16 73.5L35.5 29.8L80 12Z" fill="url(#g01_primeira_avaliacao)" stroke="#B45309" stroke-width="3.5"/>
    <path d="M80 23L117 38L133 75L123 115L90 137H70L37 115L27 75L43 38L80 23Z" fill="url(#shine)" opacity=".9"/>
    <path d="M80 12L124.5 29.8L144 73.5L132.2 121.3L92.3 148H67.7L27.8 121.3L16 73.5L35.5 29.8L80 12Z" fill="none" stroke="#FFFFFF" stroke-opacity=".55" stroke-width="1.5"/>
    <g opacity=".28">
      <circle cx="43" cy="43" r="3" fill="#FFFFFF"/>
      <circle cx="122" cy="67" r="2.5" fill="#FFFFFF"/>
      <circle cx="45" cy="117" r="2.2" fill="#FFFFFF"/>
      <circle cx="116" cy="120" r="2" fill="#FFFFFF"/>
      <path d="M36 99c22 14 66 14 88 0" stroke="#FFFFFF" stroke-width="2" stroke-linecap="round"/>
      <path d="M38 56c18-13 66-14 84 0" stroke="#FFFFFF" stroke-width="2" stroke-linecap="round"/>
    </g>
    
        <g class="inner-icon">
          <polygon points="80.0,47.0 87.6,66.5 108.5,67.7 92.4,81.0 97.6,101.3 80.0,90.0 62.4,101.3 67.6,81.0 51.5,67.7 72.4,66.5" fill="rgba(255,255,255,.84)" stroke="#B45309" stroke-width="5" stroke-linejoin="round"/>
          <circle cx="80" cy="77" r="12" fill="none" stroke="#B45309" stroke-width="4"/>
          <path d="M80 61v32M64 77h32" stroke="#B45309" stroke-width="3.5" stroke-linecap="round" opacity=".65"/>
          <path d="M53 116h54" stroke="#B45309" stroke-width="5" stroke-linecap="round" opacity=".45"/>
        </g>
    
  </g>
</svg>