<svg width="1200" height="400" viewBox="0 0 1200 400" fill="none" xmlns="http://www.w3.org/2000/svg">
  <rect width="1200" height="400" fill="#F3F4F6"/>
  <path d="M600 180C588.954 180 580 188.954 580 200C580 211.046 588.954 220 600 220C611.046 220 620 211.046 620 200C620 188.954 611.046 180 600 180ZM577.757 160.343C585.728 152.372 596.357 148 608 148C619.643 148 630.272 152.372 638.243 160.343C646.214 168.314 650.586 178.943 650.586 190.586C650.586 202.229 646.214 212.858 638.243 220.829L608 251.072L577.757 220.829C569.786 212.858 565.414 202.229 565.414 190.586C565.414 178.943 569.786 168.314 577.757 160.343ZM608 128C590.891 128 574.822 134.634 562.82 146.636C550.817 158.639 544.183 174.708 544.183 191.817C544.183 208.926 550.817 224.995 562.82 236.997L608 282.177L653.18 236.997C665.183 224.995 671.817 208.926 671.817 191.817C671.817 174.708 665.183 158.639 653.18 146.636C641.178 134.634 625.109 128 608 128Z" fill="#9CA3AF"/>
  <text x="600" y="320" text-anchor="middle" font-family="system-ui" font-size="24" fill="#6B7280">Imagem do Banner Indisponível</text>
</svg>