<svg width="200" height="200" viewBox="0 0 200 200" fill="none" xmlns="http://www.w3.org/2000/svg">
  <circle cx="100" cy="100" r="100" fill="#F3F4F6"/>
  <path d="M100 80C94.4772 80 90 84.4772 90 90C90 95.5228 94.4772 100 100 100C105.523 100 110 95.5228 110 90C110 84.4772 105.523 80 100 80ZM88.7868 70.3431C92.8623 66.2676 98.357 64 104 64C109.643 64 115.138 66.2676 119.213 70.3431C123.289 74.4185 125.556 79.9132 125.556 85.5562C125.556 91.1992 123.289 96.6939 119.213 100.769L104 116L88.7868 100.769C84.7113 96.6939 82.4437 91.1992 82.4437 85.5562C82.4437 79.9132 84.7113 74.4185 88.7868 70.3431ZM104 54C95.8912 54 88.0559 57.2634 82.2513 63.0681C76.4467 68.8728 73.1833 76.708 73.1833 84.8168C73.1833 92.9255 76.4467 100.761 82.2513 106.565L104 128.314L125.749 106.565C131.553 100.761 134.817 92.9255 134.817 84.8168C134.817 76.708 131.553 68.8728 125.749 63.0681C119.944 57.2634 112.109 54 104 54Z" fill="#9CA3AF"/>
  <text x="100" y="150" text-anchor="middle" font-family="system-ui" font-size="14" fill="#6B7280">Logo</text>
</svg>